<svg xmlns="http://www.w3.org/2000/svg" width="29.11" height="29.109" viewBox="0 0 29.11 29.109">
  <path id="instagram" d="M26.9,4.831H9.045a5.632,5.632,0,0,0-5.626,5.625V28.315A5.632,5.632,0,0,0,9.045,33.94H26.9a5.631,5.631,0,0,0,5.625-5.625V10.456A5.631,5.631,0,0,0,26.9,4.831Zm1.614,3.355.644,0v4.934l-4.918.016L24.226,8.2ZM13.819,16.4a5.115,5.115,0,1,1-.969,2.988A5.122,5.122,0,0,1,13.819,16.4ZM29.692,28.315A2.792,2.792,0,0,1,26.9,31.1H9.045a2.792,2.792,0,0,1-2.79-2.789V16.4H10.6a7.96,7.96,0,1,0,14.746,0h4.346Z" transform="translate(-3.419 -4.831)" opacity="0.64"/>
</svg>
