<svg xmlns="http://www.w3.org/2000/svg" width="28.926" height="23.507" viewBox="0 0 28.926 23.507">
  <path id="twitter" d="M32.5,13.109a11.808,11.808,0,0,1-3.409.934A5.945,5.945,0,0,0,31.7,10.759,11.88,11.88,0,0,1,27.932,12.2a5.939,5.939,0,0,0-10.112,5.413,16.85,16.85,0,0,1-12.233-6.2,5.942,5.942,0,0,0,1.837,7.923,5.918,5.918,0,0,1-2.688-.743c0,.025,0,.05,0,.075A5.939,5.939,0,0,0,9.5,24.487a5.967,5.967,0,0,1-1.564.208,5.88,5.88,0,0,1-1.117-.107,5.941,5.941,0,0,0,5.544,4.121,11.975,11.975,0,0,1-8.786,2.457,16.794,16.794,0,0,0,9.1,2.666c10.916,0,16.885-9.043,16.885-16.885q0-.386-.016-.769A12.02,12.02,0,0,0,32.5,13.109Z" transform="translate(-3.574 -10.326)" opacity="0.64"/>
</svg>
