<svg xmlns="http://www.w3.org/2000/svg" width="28.799" height="28.169" viewBox="0 0 28.799 28.169">
  <g id="youtube" opacity="0.64">
    <path id="Path_1" data-name="Path 1" d="M27.362,28.21H9.084a5.262,5.262,0,0,0-5.261,5.262V37.7a5.262,5.262,0,0,0,5.261,5.262H27.362A5.262,5.262,0,0,0,32.622,37.7V33.472A5.263,5.263,0,0,0,27.362,28.21ZM12.924,31.5h-1.7v8.444H9.583V31.5h-1.7V30.065h5.039Zm4.8,8.444H16.268v-.8a3.116,3.116,0,0,1-.841.673,1.755,1.755,0,0,1-.846.233.906.906,0,0,1-.762-.326,1.571,1.571,0,0,1-.255-.977V32.656H15.02v5.592a.623.623,0,0,0,.09.373.358.358,0,0,0,.3.116.828.828,0,0,0,.406-.153,1.967,1.967,0,0,0,.452-.392V32.656h1.456Zm5.287-1.5a1.816,1.816,0,0,1-.343,1.187,1.21,1.21,0,0,1-.99.412,1.735,1.735,0,0,1-.763-.159,1.872,1.872,0,0,1-.623-.494v.558H18.818V30.065h1.474v3.182a2.273,2.273,0,0,1,.624-.506,1.43,1.43,0,0,1,.673-.173,1.258,1.258,0,0,1,1.055.464A2.171,2.171,0,0,1,23.01,34.4V38.44Zm5.051-1.964H25.276V37.85a1.589,1.589,0,0,0,.142.8.544.544,0,0,0,.494.222.6.6,0,0,0,.507-.188,1.574,1.574,0,0,0,.144-.831v-.332h1.5v.374a2.337,2.337,0,0,1-.55,1.69,2.171,2.171,0,0,1-1.634.563,2.008,2.008,0,0,1-1.543-.6,2.327,2.327,0,0,1-.563-1.653V34.618a2.056,2.056,0,0,1,.621-1.546,2.2,2.2,0,0,1,1.594-.6,2.044,2.044,0,0,1,1.538.553,2.191,2.191,0,0,1,.537,1.589Z" transform="translate(-3.823 -14.793)"/>
    <path id="Path_2" data-name="Path 2" d="M41.009,37.646a.578.578,0,0,0-.5.2,1.061,1.061,0,0,0-.151.653v.737h1.288V38.5a1.066,1.066,0,0,0-.154-.653A.558.558,0,0,0,41.009,37.646Z" transform="translate(-18.905 -18.688)"/>
    <path id="Path_3" data-name="Path 3" d="M32.481,37.6a.717.717,0,0,0-.308.07,1.043,1.043,0,0,0-.3.223v4.541a1.244,1.244,0,0,0,.345.26.856.856,0,0,0,.352.078.473.473,0,0,0,.393-.156.8.8,0,0,0,.125-.5V38.354a.871.871,0,0,0-.153-.561A.564.564,0,0,0,32.481,37.6Z" transform="translate(-15.402 -18.671)"/>
    <path id="Path_4" data-name="Path 4" d="M15.312,16.245h1.846V11.73l2.15-6.37H17.431L16.288,9.711h-.116l-1.2-4.351h-1.86l2.2,6.573Z" transform="translate(-7.658 -5.36)"/>
    <path id="Path_5" data-name="Path 5" d="M26.258,18.313a2.5,2.5,0,0,0,1.757-.587,2.093,2.093,0,0,0,.635-1.616V11.962A1.932,1.932,0,0,0,28,10.46a2.418,2.418,0,0,0-1.67-.582,2.693,2.693,0,0,0-1.781.553,1.836,1.836,0,0,0-.662,1.486v4.162a2.126,2.126,0,0,0,.646,1.628A2.42,2.42,0,0,0,26.258,18.313Zm-.68-6.457a.546.546,0,0,1,.186-.426.727.727,0,0,1,.49-.16.812.812,0,0,1,.526.16.526.526,0,0,1,.2.426v4.375a.66.66,0,0,1-.2.507.739.739,0,0,1-.528.184.658.658,0,0,1-.5-.182.7.7,0,0,1-.174-.51V11.856Z" transform="translate(-12.107 -7.225)"/>
    <path id="Path_6" data-name="Path 6" d="M35.409,18.37a2.063,2.063,0,0,0,.951-.257,3.477,3.477,0,0,0,.945-.749v.89h1.64v-8.03H37.3v6.095a2.27,2.27,0,0,1-.5.432.951.951,0,0,1-.459.169.4.4,0,0,1-.334-.13.656.656,0,0,1-.106-.41V10.224H34.265v6.711a1.694,1.694,0,0,0,.287,1.073A1.033,1.033,0,0,0,35.409,18.37Z" transform="translate(-16.39 -7.368)"/>
  </g>
</svg>
